# xmcd
#
# Track frame offsets:
#	150
#	9930
#	24546
#	37869
#	52790
#	73057
#	84233
#	95399
#	121975
#	134778
#	148284
#	160082
#	178699
#	187314
#	202350
#	217733
#	224476
#	238696
#	254259
#	269253
#	308165
#
# Disc length: 4501 seconds
#
# Revision: 5
# Processed by: cddbd v1.5.2PL0 Copyright (c) Steve Scherf et al.
# Submitted via: audiograbber 1.83.01
#
DISCID=35119315
DTITLE=Various Artist - LateNightTales: Bonobo
DYEAR=2013
DGENRE=Electronic
TTITLE0=Dustin O'Halloran - An Ending, A Beginning
TTITLE1=Khruangbin - Calf Is Born In Winter
TTITLE2=Bonobo - Get Thy Bearings [Exclusive Donovan Cover Version]
TTITLE3=Darondo - Didn't I
TTITLE4=Nina Simone - Baltimore
TTITLE5=Hypnotic Brass Ensemble - Flipside
TTITLE6=Menehan Street Band - The Traitor
TTITLE7=Andrew Ashong and Theo Parrish - Flowers
TTITLE8=Romare - Down The Line (It Takes A Number)
TTITLE9=Shlohmo - Places
TTITLE10=Lapalux - Gutter Glitter
TTITLE11=The Invisible - Wings [Floating Points Remix]
TTITLE12=Badbadnotgood - Hedron
TTITLE13=Matthew Bourne - VIII. Juliette
TTITLE14=Airhead - South Congress
TTITLE15=Matthew Halsall - Sailing Out To Sea
TTITLE16=Dorothy Ashby - Essence Of Sapphire
TTITLE17=Peter And Kerry - One Thing
TTITLE18=Eddi Front - Gigantic
TTITLE19=Bill Evans - Peace Piece
TTITLE20=Benedict Cumberbatch - Flat Of Angles (Part 3) [exclusive spoken word 
TTITLE20=piece]
EXTD=
EXTT0=
EXTT1=
EXTT2=
EXTT3=
EXTT4=
EXTT5=
EXTT6=
EXTT7=
EXTT8=
EXTT9=
EXTT10=
EXTT11=
EXTT12=
EXTT13=
EXTT14=
EXTT15=
EXTT16=
EXTT17=
EXTT18=
EXTT19=
EXTT20=
PLAYORDER=
